HIERARCHY
ROOT Hips
{
  OFFSET -10.0563 7.73376 -472.55
  CHANNELS 6 Xposition Yposition Zposition Zrotation Xrotation Yrotation
  JOINT Spine
  {
    OFFSET 0 0 0
    CHANNELS 3 Zrotation Xrotation Yrotation
    JOINT Spine1
    {
      OFFSET 19 0 0
      CHANNELS 3 Zrotation Xrotation Yrotation
      JOINT Neck
      {
        OFFSET 22.5 0.6 0
        CHANNELS 3 Zrotation Xrotation Yrotation
        JOINT Head
        {
          OFFSET 14 0.0308777 0
          CHANNELS 3 Zrotation Xrotation Yrotation
          End Site
          {
            OFFSET 17 0 0
          }
        }
      }
      JOINT LeftShoulder
      {
        OFFSET 19.8 3.7 4.3
        CHANNELS 3 Zrotation Xrotation Yrotation
        JOINT LeftArm
        {
          OFFSET 8 0 0
          CHANNELS 3 Zrotation Xrotation Yrotation
          JOINT LeftForeArm
          {
            OFFSET 15.2 0 0
            CHANNELS 3 Zrotation Xrotation Yrotation
            JOINT LeftHand
            {
              OFFSET 17.8 0 0
              CHANNELS 3 Zrotation Xrotation Yrotation
              End Site
              {
                OFFSET 7.2 0 0
              }
            }
          }
        }
      }
      JOINT RightShoulder
      {
        OFFSET 19.8 3.7 -4.3
        CHANNELS 3 Zrotation Xrotation Yrotation
        JOINT RightArm
        {
          OFFSET 8 0 0.151654
          CHANNELS 3 Zrotation Xrotation Yrotation
          JOINT RightForeArm
          {
            OFFSET 15.2 0 0
            CHANNELS 3 Zrotation Xrotation Yrotation
            JOINT RightHand
            {
              OFFSET 17.8 0 0
              CHANNELS 3 Zrotation Xrotation Yrotation
              End Site
              {
                OFFSET 7.2 0 0
              }
            }
          }
        }
      }
    }
  }
  JOINT LeftUpLeg
  {
    OFFSET 5.98425 -7.666 4.78879
    CHANNELS 3 Zrotation Xrotation Yrotation
    JOINT LeftLeg
    {
      OFFSET 16 0 0
      CHANNELS 3 Zrotation Xrotation Yrotation
      JOINT LeftFoot
      {
        OFFSET 18 0 0
        CHANNELS 3 Zrotation Xrotation Yrotation
        End Site
        {
          OFFSET 0 -10.8 0
        }
      }
    }
  }
  JOINT RightUpLeg
  {
    OFFSET 5.98425 -7.66598 -4.78879
    CHANNELS 3 Zrotation Xrotation Yrotation
    JOINT RightLeg
    {
      OFFSET 16 0 0
      CHANNELS 3 Zrotation Xrotation Yrotation
      JOINT RightFoot
      {
        OFFSET 18 0 0
        CHANNELS 3 Zrotation Xrotation Yrotation
        End Site
        {
          OFFSET 0 -10.8 0
        }
      }
    }
  }
  JOINT Tail
  {
    OFFSET 6.83696 -0.722574 0
    CHANNELS 3 Zrotation Xrotation Yrotation
    JOINT Tail1
    {
      OFFSET 12 0 0
      CHANNELS 3 Zrotation Xrotation Yrotation
      End Site
      {
        OFFSET 12 0 0
      }
    }
  }
}
MOTION
Frames:	14
Frame Time:	0.0166667
12.2342 7.92116 -500.063 164.003 -81.1817 -101.434 -136.347 -0.191064 -10.0789 12.0116 3.73725 11.3697 24.319 -17.5411 24.6639 -85.8942 50.1769 113.614 -111.104 -38.4594 -136.462 78.3458 -68.0054 -154.772 -78.2714 9.51221 -0.151274 8.40142 -0.0301914 -12.1311 76.8799 -29.0165 48.043 110.759 -66.8578 14.6589 -83.6708 -12.168 -4.72044 3.25132 0.29464 -5.46461 -152.69 70.6463 23.7249 164.385 53.4191 0.965115 -31.9685 -3.01892 25.4492 -134.726 -35.4228 4.56688 161.025 -41.1731 -4.18973 -21.8507 -5.86595 -27.9847 78.2006 13.696 8.07968 12.6269 -20.7466 3.77608 
12.2047 7.91261 -500.071 164.609 -81.1165 -100.858 -136.365 -0.280262 -10.5293 12.1072 3.81687 12 24.3339 -17.6111 24.8205 -85.9866 50.1441 113.487 -111.047 -38.4968 -136.251 78.959 -68.3594 -154.527 -78.2626 9.16406 -0.0272409 8.76627 -0.0543333 -12.192 76.7439 -29.111 47.7539 110.754 -66.5333 14.4883 -83.8507 -12.3072 -4.62416 3.3499 0.29173 -5.68982 -152.56 71.2008 23.6941 164.244 54.2384 1.02485 -32.0315 -3.01387 25.5898 -134.008 -35.14 4.41102 160.845 -41.2383 -4.21793 -22.7245 -5.6264 -27.6654 78.2355 13.7314 8.15009 12.6512 -20.769 3.74494 
12.2308 7.94729 -500.046 164.942 -81.4131 -100.58 -136.667 -0.305848 -10.7275 12.1165 3.84097 12.2039 24.3627 -17.5919 25.1447 -85.9478 50.2856 113.335 -111.079 -38.55 -136.236 78.7449 -68.4716 -154.99 -78.2198 10.083 0.244344 7.49756 -0.0351172 -11.619 76.834 -29.0086 47.8498 110.35 -66.537 14.1874 -83.6755 -12.5089 -4.65236 3.04798 0.340106 -5.85735 -151.991 71.2184 22.9472 164.287 54.0358 0.99389 -32.2503 -3.07011 25.4842 -134.896 -35.2042 3.95233 160.963 -41.1352 -4.20318 -22.454 -5.7247 -27.9481 77.816 13.6686 8.86526 12.9318 -20.8707 4.01234 
12.2808 7.92802 -500.075 166.044 -81.2699 -99.417 -136.423 -0.273178 -10.7206 11.9372 3.87774 12.2006 24.8219 -17.7241 25.9064 -85.8034 50.5798 112.564 -111.141 -38.6035 -136.294 78.5895 -68.6362 -155.242 -78.2517 10.0636 0.239111 7.60778 -0.0420573 -11.6967 77.0174 -28.8285 48.1157 110.172 -66.6642 14.1826 -83.6749 -12.5103 -4.6774 2.97265 0.34275 -5.88685 -150.897 71.2139 21.8625 164.3 53.719 1.00586 -32.4152 -3.13109 25.0824 -135.281 -34.3002 3.87137 161.235 -40.1952 -4.07352 -21.8744 -5.87918 -27.929 78.1194 13.3786 9.12046 12.8652 -20.6999 3.90172 
12.3044 7.91982 -500.07 166.534 -81.333 -98.8873 -136.507 -0.290337 -10.813 11.9735 3.88568 12.3689 24.7387 -17.6722 26.0304 -85.7106 50.5389 112.714 -111.183 -38.6301 -136.353 78.0174 -68.5777 -155.791 -78.4134 10.2402 0.260114 7.64992 -0.0715416 -11.3594 76.9919 -28.8289 48.0192 110.13 -66.5468 14.1319 -83.7847 -12.415 -4.75397 2.95497 0.345609 -5.83724 -151.596 71.3913 22.6239 164.369 53.8727 1.00081 -32.4655 -3.13502 25.3447 -135.319 -34.3948 3.80775 161.187 -40.2239 -4.08231 -21.8459 -5.87527 -27.8755 78.0637 13.2809 9.27667 12.8185 -20.6858 3.8411 
12.3084 7.91595 -500.058 167.026 -81.4302 -98.3271 -136.691 -0.40285 -10.255 12.226 3.57404 11.575 24.8074 -17.3766 26.551 -85.4225 51.3073 112.331 -111.124 -38.8192 -135.865 77.1507 -68.6503 -156.994 -78.4672 9.7835 0.500987 7.66305 -0.0310278 -11.8253 76.9304 -28.7655 47.6298 109.056 -67.0431 12.7132 -83.3823 -12.7354 -4.47277 2.78206 0.365847 -5.69408 -153.313 71.8132 24.6033 164.417 54.341 1.00379 -32.5193 -3.12589 25.9111 -134.983 -35.1453 3.9445 160.836 -41.1553 -4.21384 -22.1961 -5.7717 -27.8781 77.8019 13.2796 9.52103 12.8639 -20.8406 3.8292 
12.3586 7.89557 -500.069 168.601 -81.3469 -96.6953 -136.402 -0.459062 -10.2677 11.9555 3.52707 11.5313 24.8753 -17.3067 26.4089 -85.8008 50.6081 113.034 -111.123 -38.8773 -135.76 76.4353 -68.8541 -158.113 -78.5067 9.51961 0.818435 7.54207 -0.0239402 -12.01 76.9408 -28.6753 47.45 109.163 -67.018 12.7984 -83.4326 -12.6676 -4.56002 2.67737 0.373682 -5.57693 -153.307 72.2019 24.844 164.41 54.4726 1.03383 -32.6313 -3.15254 25.8518 -135.488 -35.326 3.74427 160.894 -41.4981 -4.22276 -21.6387 -5.92872 -28.2066 77.8677 13.1172 9.8615 12.8579 -20.8325 3.74921 
12.4448 7.87355 -500.109 170.471 -81.202 -94.7482 -136.046 -0.419572 -10.2727 11.5949 3.57757 11.4495 25.1195 -17.1753 26.7534 -85.7851 50.7821 112.913 -111.135 -38.8419 -135.853 75.2608 -68.1775 -158.044 -78.4639 10.2197 0.359992 7.37478 -0.0575223 -11.4267 77.1583 -28.481 47.8141 109.051 -67.3551 12.7174 -83.3536 -12.7977 -4.41542 2.68438 0.375796 -5.67725 -152.529 72.1121 24.0101 164.522 53.8609 1.03086 -32.5218 -3.14601 25.3494 -136.013 -33.7123 4.01434 161.271 -39.744 -3.99252 -20.5559 -6.1713 -27.8351 78.0806 12.8509 10.2058 12.8143 -20.7314 3.66569 
12.4679 7.86803 -500.115 171.515 -81.2255 -93.6533 -136.137 -0.475732 -10.3665 11.7026 3.55627 11.5638 24.971 -16.8555 26.6947 -85.7359 51.1906 113.092 -111.152 -38.8748 -135.837 74.7569 -67.9158 -158.325 -78.572 9.9548 0.368742 7.52363 -0.0580748 -11.5959 77.0568 -28.53 47.5407 108.663 -67.3997 12.3444 -83.3255 -12.8298 -4.44508 2.57442 0.375741 -5.5822 -152.781 72.0993 24.4076 164.577 53.6796 1.00729 -32.4618 -3.13012 25.4569 -135.929 -33.7764 4.06144 161.13 -40.0491 -4.03296 -20.5124 -6.15479 -27.7114 78.0207 12.7335 10.4682 12.7914 -20.7446 3.62764 
12.4751 7.85816 -500.095 172.289 -81.3519 -92.9014 -136.496 -0.531939 -10.5954 12.0397 3.57833 11.8921 24.6138 -16.42 26.7121 -85.5483 52.3992 112.762 -111.175 -38.9212 -135.813 75.0801 -68.1044 -158.58 -78.5878 9.7124 0.595535 7.60115 -0.057503 -11.7048 76.9845 -28.5532 47.3183 108.252 -67.307 11.9766 -83.4154 -12.8204 -4.42393 2.67469 0.376266 -5.64348 -154.518 72.6638 26.4522 164.628 54.3404 1.02133 -32.7563 -3.17441 25.9806 -135.902 -34.6704 4.20417 160.836 -40.9641 -4.16112 -20.588 -6.12128 -27.7585 77.7979 12.7322 10.7634 12.7934 -20.814 3.57877 
12.4995 7.84814 -500.107 173.084 -81.2603 -92.1123 -136.491 -0.517588 -10.7799 12.1117 3.66345 12.2109 24.5461 -16.2028 26.6513 -85.5299 53.0251 112.529 -111.152 -38.9085 -135.778 75.1033 -68.0305 -158.443 -78.6137 9.50214 0.661344 7.64567 -0.0605365 -11.8316 76.9934 -28.5503 47.3458 108.047 -67.2491 11.8949 -83.4388 -12.9172 -4.42192 2.5743 0.379149 -5.69457 -154.283 72.9195 26.3696 164.61 54.4952 1.05849 -32.8826 -3.20732 25.951 -136.297 -34.4411 4.1456 160.986 -40.7151 -4.10522 -20.0154 -6.27186 -27.8866 77.8837 12.6871 10.8972 12.8312 -20.797 3.5887 
12.5309 7.8347 -500.137 174.181 -81.0677 -90.9181 -136.283 -0.410419 -10.7354 11.9785 3.76371 12.1723 24.588 -15.8745 26.8174 -85.626 53.7566 112.235 -111.216 -38.9075 -135.939 74.9646 -67.9045 -158.363 -78.5676 9.5946 0.510516 7.69743 -0.0752443 -11.752 77.1046 -28.4437 47.5138 107.907 -67.2666 11.7434 -83.4126 -12.8617 -4.39872 2.61905 0.361661 -5.63941 -152.676 73.0534 24.6933 164.507 54.2241 1.09384 -32.888 -3.2254 25.3743 -136.573 -33.498 4.05231 161.19 -40.0101 -3.99192 -19.5578 -6.38452 -27.8405 78.1848 12.4453 10.989 12.783 -20.665 3.56088 
12.5282 7.82242 -500.134 173.658 -81.0644 -91.3983 -136.646 -0.415349 -10.7214 12.4586 3.74753 12.3829 24.3689 -15.5287 26.4769 -86.0235 54.1095 112.498 -111.19 -38.8783 -135.927 75.2993 -67.2726 -157.641 -78.4219 9.74711 0.354722 7.69378 -0.0901309 -11.3646 77.0408 -28.5487 47.5248 107.262 -67.3216 10.9227 -83.3757 -12.8906 -4.24903 2.70612 0.344348 -5.62906 -153.461 73.015 25.5183 164.543 54.4389 1.08321 -32.8484 -3.20424 25.623 -136.34 -33.9185 4.11242 161.105 -40.2838 -4.04057 -19.7712 -6.32886 -27.846 78.261 12.3796 10.8973 12.6779 -20.6169 3.53512 
12.4803 7.80376 -500.109 172.434 -81.1135 -92.7543 -137.002 -0.500447 -10.8634 12.8308 3.70274 12.742 24.186 -15.291 26.2318 -85.7873 54.7403 112.425 -111.14 -38.8445 -135.861 76.3284 -67.6553 -157.488 -78.3516 9.48944 0.548258 7.87799 -0.0947698 -11.4072 77.0147 -28.5089 47.3261 106.65 -66.9684 10.4831 -83.3751 -12.8287 -4.40278 2.5989 0.381269 -5.75567 -155.247 73.0156 27.4226 164.625 54.8208 1.06149 -32.8193 -3.17672 26.2628 -136.177 -34.9764 3.97153 160.934 -41.0491 -4.15883 -20.279 -6.22715 -28.0586 78.2354 12.5618 10.7476 12.6791 -20.6211 3.54256 
